# xmcd CD database file
#
# Track frame offsets:
#	150
#	26073
#	56441
#
# Disc length: 1036 seconds
#
# Revision: 1
# Processed by: cddbd v1.5.1PL2 Copyright (c) Steve Scherf et al.
# Submitted via: CDex 1.51
#
DISCID=1e040a03
DTITLE=TOGUAR&The Cleeplands - TOGUAR&The Cleeplands
DYEAR=2005
DGENRE=ロック (日本)
TTITLE0=Delusion
TTITLE1=Happy end song
TTITLE2=All right
EXTD=YEAR: 2005
EXTT0=
EXTT1=
EXTT2=
PLAYORDER=
